# Blender v2.79 (sub 0) OBJ File: 'voxelmodel.blend'
# www.blender.org
mtllib voxelmodel.mtl
o Cube_Cube.001
v -0.500000 -0.500000 0.500000
v -0.500000 0.500000 0.500000
v 0.500000 -0.500000 0.500000
v 0.500000 0.500000 0.500000
v -0.500000 -0.437500 0.500000
v -0.500000 -0.437500 -0.500000
v 0.500000 -0.437500 0.500000
v 0.500000 -0.437500 -0.500000
v -0.500000 -0.375000 0.500000
v -0.500000 -0.375000 -0.500000
v 0.500000 -0.375000 0.500000
v 0.500000 -0.375000 -0.500000
v -0.500000 -0.312500 0.500000
v -0.500000 -0.312500 -0.500000
v 0.500000 -0.312500 0.500000
v 0.500000 -0.312500 -0.500000
v -0.500000 -0.250000 0.500000
v -0.500000 -0.250000 -0.500000
v 0.500000 -0.250000 0.500000
v 0.500000 -0.250000 -0.500000
v -0.500000 -0.187500 0.500000
v -0.500000 -0.187500 -0.500000
v 0.500000 -0.187500 0.500000
v 0.500000 -0.187500 -0.500000
v -0.500000 -0.125000 0.500000
v -0.500000 -0.125000 -0.500000
v 0.500000 -0.125000 0.500000
v 0.500000 -0.125000 -0.500000
v -0.500000 -0.062500 0.500000
v -0.500000 -0.062500 -0.500000
v 0.500000 -0.062500 0.500000
v 0.500000 -0.062500 -0.500000
v -0.500000 0.000000 0.500000
v -0.500000 0.000000 -0.500000
v 0.500000 0.000000 0.500000
v 0.500000 0.000000 -0.500000
v -0.500000 0.062500 0.500000
v -0.500000 0.062500 -0.500000
v 0.500000 0.062500 0.500000
v 0.500000 0.062500 -0.500000
v -0.500000 0.125000 0.500000
v -0.500000 0.125000 -0.500000
v 0.500000 0.125000 0.500000
v 0.500000 0.125000 -0.500000
v -0.500000 0.187500 0.500000
v -0.500000 0.187500 -0.500000
v 0.500000 0.187500 0.500000
v 0.500000 0.187500 -0.500000
v -0.500000 0.250000 0.500000
v -0.500000 0.250000 -0.500000
v 0.500000 0.250000 0.500000
v 0.500000 0.250000 -0.500000
v -0.500000 0.312500 0.500000
v -0.500000 0.312500 -0.500000
v 0.500000 0.312500 0.500000
v 0.500000 0.312500 -0.500000
v -0.500000 0.375000 0.500000
v -0.500000 0.375000 -0.500000
v 0.500000 0.375000 0.500000
v 0.500000 0.375000 -0.500000
v -0.500000 0.437500 0.500000
v -0.500000 0.437500 -0.500000
v 0.500000 0.437500 0.500000
v 0.500000 0.437500 -0.500000
v -0.500000 0.500000 0.500000
v -0.500000 0.500000 -0.500000
v 0.500000 0.500000 0.500000
v 0.500000 0.500000 -0.500000
v -0.500000 -0.500000 0.500000
v -0.500000 -0.500000 -0.500000
v 0.500000 -0.500000 0.500000
v 0.500000 -0.500000 -0.500000
v -0.437500 0.500000 0.500000
v -0.437500 -0.500000 0.500000
v -0.437500 0.500000 -0.500000
v -0.437500 -0.500000 -0.500000
v -0.500000 -0.500000 -0.500000
v -0.500000 0.500000 -0.500000
v -0.500000 -0.500000 0.500000
v -0.500000 0.500000 0.500000
v -0.375000 0.500000 0.500000
v -0.375000 -0.500000 0.500000
v -0.375000 0.500000 -0.500000
v -0.375000 -0.500000 -0.500000
v -0.312500 0.500000 0.500000
v -0.312500 -0.500000 0.500000
v -0.312500 0.500000 -0.500000
v -0.312500 -0.500000 -0.500000
v -0.250000 0.500000 0.500000
v -0.250000 -0.500000 0.500000
v -0.250000 0.500000 -0.500000
v -0.250000 -0.500000 -0.500000
v -0.187500 0.500000 0.500000
v -0.187500 -0.500000 0.500000
v -0.187500 0.500000 -0.500000
v -0.187500 -0.500000 -0.500000
v -0.125000 0.500000 0.500000
v -0.125000 -0.500000 0.500000
v -0.125000 0.500000 -0.500000
v -0.125000 -0.500000 -0.500000
v -0.062500 0.500000 0.500000
v -0.062500 -0.500000 0.500000
v -0.062500 0.500000 -0.500000
v -0.062500 -0.500000 -0.500000
v 0.000000 0.500000 0.500000
v 0.000000 -0.500000 0.500000
v 0.000000 0.500000 -0.500000
v 0.000000 -0.500000 -0.500000
v 0.062500 0.500000 0.500000
v 0.062500 -0.500000 0.500000
v 0.062500 0.500000 -0.500000
v 0.062500 -0.500000 -0.500000
v 0.125000 0.500000 0.500000
v 0.125000 -0.500000 0.500000
v 0.125000 0.500000 -0.500000
v 0.125000 -0.500000 -0.500000
v 0.187500 0.500000 0.500000
v 0.187500 -0.500000 0.500000
v 0.187500 0.500000 -0.500000
v 0.187500 -0.500000 -0.500000
v 0.250000 0.500000 0.500000
v 0.250000 -0.500000 0.500000
v 0.250000 0.500000 -0.500000
v 0.250000 -0.500000 -0.500000
v 0.312500 0.500000 0.500000
v 0.312500 -0.500000 0.500000
v 0.312500 0.500000 -0.500000
v 0.312500 -0.500000 -0.500000
v 0.375000 0.500000 0.500000
v 0.375000 -0.500000 0.500000
v 0.375000 0.500000 -0.500000
v 0.375000 -0.500000 -0.500000
v 0.437500 0.500000 0.500000
v 0.437500 -0.500000 0.500000
v 0.437500 0.500000 -0.500000
v 0.437500 -0.500000 -0.500000
v 0.500000 0.500000 0.500000
v 0.500000 -0.500000 0.500000
v 0.500000 0.500000 -0.500000
v 0.500000 -0.500000 -0.500000
v -0.500000 -0.500000 0.437500
v -0.500000 0.500000 0.437500
v 0.500000 -0.500000 0.437500
v 0.500000 0.500000 0.437500
v -0.500000 -0.500000 0.375000
v -0.500000 0.500000 0.375000
v 0.500000 -0.500000 0.375000
v 0.500000 0.500000 0.375000
v -0.500000 -0.500000 0.312500
v -0.500000 0.500000 0.312500
v 0.500000 -0.500000 0.312500
v 0.500000 0.500000 0.312500
v -0.500000 -0.500000 0.250000
v -0.500000 0.500000 0.250000
v 0.500000 -0.500000 0.250000
v 0.500000 0.500000 0.250000
v -0.500000 -0.500000 0.187500
v -0.500000 0.500000 0.187500
v 0.500000 -0.500000 0.187500
v 0.500000 0.500000 0.187500
v -0.500000 -0.500000 0.125000
v -0.500000 0.500000 0.125000
v 0.500000 -0.500000 0.125000
v 0.500000 0.500000 0.125000
v -0.500000 -0.500000 0.062500
v -0.500000 0.500000 0.062500
v 0.500000 -0.500000 0.062500
v 0.500000 0.500000 0.062500
v -0.500000 -0.500000 0.000000
v -0.500000 0.500000 0.000000
v 0.500000 -0.500000 0.000000
v 0.500000 0.500000 0.000000
v -0.500000 -0.500000 -0.062500
v -0.500000 0.500000 -0.062500
v 0.500000 -0.500000 -0.062500
v 0.500000 0.500000 -0.062500
v -0.500000 -0.500000 -0.125000
v -0.500000 0.500000 -0.125000
v 0.500000 -0.500000 -0.125000
v 0.500000 0.500000 -0.125000
v -0.500000 -0.500000 -0.187500
v -0.500000 0.500000 -0.187500
v 0.500000 -0.500000 -0.187500
v 0.500000 0.500000 -0.187500
v -0.500000 -0.500000 -0.250000
v -0.500000 0.500000 -0.250000
v 0.500000 -0.500000 -0.250000
v 0.500000 0.500000 -0.250000
v -0.500000 -0.500000 -0.312500
v -0.500000 0.500000 -0.312500
v 0.500000 -0.500000 -0.312500
v 0.500000 0.500000 -0.312500
v -0.500000 -0.500000 -0.375000
v -0.500000 0.500000 -0.375000
v 0.500000 -0.500000 -0.375000
v 0.500000 0.500000 -0.375000
v -0.500000 -0.500000 -0.437500
v -0.500000 0.500000 -0.437500
v 0.500000 -0.500000 -0.437500
v 0.500000 0.500000 -0.437500
v -0.500000 -0.500000 -0.500000
v -0.500000 0.500000 -0.500000
v 0.500000 -0.500000 -0.500000
v 0.500000 0.500000 -0.500000
vt 1.000000 0.176471
vt 1.000000 0.117647
vt 0.666667 0.117647
vt 0.666667 0.176471
vt 1.000000 0.235294
vt 1.000000 0.176471
vt 0.666667 0.176471
vt 0.666667 0.235294
vt 0.666667 0.647059
vt 1.000000 0.647059
vt 1.000000 0.588235
vt 0.666667 0.588235
vt 1.000000 0.411765
vt 1.000000 0.352941
vt 0.666667 0.352941
vt 0.666667 0.411765
vt 1.000000 0.411765
vt 0.666667 0.411765
vt 0.666667 0.470588
vt 1.000000 0.470588
vt 0.666667 0.529412
vt 1.000000 0.529412
vt 1.000000 0.470588
vt 0.666667 0.470588
vt 0.666667 0.529412
vt 0.666667 0.588235
vt 1.000000 0.588235
vt 1.000000 0.529412
vt 1.000000 0.647059
vt 0.666667 0.647059
vt 0.666667 0.705882
vt 1.000000 0.705882
vt 1.000000 0.764706
vt 1.000000 0.705882
vt 0.666667 0.705882
vt 0.666667 0.764706
vt 0.666667 0.823529
vt 1.000000 0.823529
vt 1.000000 0.764706
vt 0.666667 0.764706
vt 1.000000 0.882353
vt 1.000000 0.823529
vt 0.666667 0.823529
vt 0.666667 0.882353
vt 0.333333 0.411765
vt 0.666667 0.411765
vt 0.666667 0.352941
vt 0.333333 0.352941
vt 1.000000 0.941176
vt 0.666667 0.941176
vt 0.666667 1.000000
vt 1.000000 1.000000
vt 0.333333 0.588235
vt 0.666667 0.588235
vt 0.666667 0.529412
vt 0.333333 0.529412
vt 0.666667 0.058824
vt 1.000000 0.058824
vt 1.000000 0.000000
vt 0.666667 0.000000
vt 0.000000 0.941176
vt 0.333333 0.941176
vt 0.333333 0.882353
vt 0.000000 0.882353
vt 0.333333 0.058824
vt 0.333333 0.000000
vt -0.000000 0.000000
vt 0.000000 0.058824
vt 0.000000 0.823529
vt 0.333333 0.823529
vt 0.333333 0.764706
vt 0.000000 0.764706
vt 0.333333 0.117647
vt 0.000000 0.117647
vt 0.000000 0.176471
vt 0.333333 0.176471
vt 0.666667 0.294118
vt 0.666667 0.352941
vt 1.000000 0.352941
vt 1.000000 0.294118
vt 0.333333 0.352941
vt 0.000000 0.352941
vt 0.000000 0.411765
vt 0.333333 0.411765
vt 0.000000 0.352941
vt 0.333333 0.352941
vt 0.333333 0.294118
vt 0.000000 0.294118
vt 0.333333 0.705882
vt 0.666667 0.705882
vt 0.666667 0.647059
vt 0.333333 0.647059
vt 0.000000 0.411765
vt 0.000000 0.470588
vt 0.333333 0.470588
vt 0.333333 0.411765
vt 0.000000 0.647059
vt 0.000000 0.705882
vt 0.333333 0.705882
vt 0.333333 0.647059
vt 0.333333 0.470588
vt 0.000000 0.470588
vt 0.000000 0.529412
vt 0.333333 0.529412
vt 0.333333 0.529412
vt 0.000000 0.529412
vt 0.000000 0.588235
vt 0.333333 0.588235
vt 0.000000 0.588235
vt 0.000000 0.647059
vt 0.333333 0.647059
vt 0.333333 0.588235
vt 0.666667 0.235294
vt 0.333333 0.235294
vt 0.333333 0.294118
vt 0.666667 0.294118
vt 0.000000 0.764706
vt 0.333333 0.764706
vt 0.333333 0.705882
vt 0.000000 0.705882
vt 1.000000 0.941176
vt 1.000000 0.882353
vt 0.666667 0.882353
vt 0.666667 0.941176
vt 0.333333 0.235294
vt 0.000000 0.235294
vt 0.000000 0.294118
vt 0.333333 0.294118
vt 0.000000 0.823529
vt 0.000000 0.882353
vt 0.333333 0.882353
vt 0.333333 0.823529
vt 1.000000 0.294118
vt 1.000000 0.235294
vt 0.666667 0.235294
vt 0.666667 0.294118
vt 0.000000 0.941176
vt 0.000000 1.000000
vt 0.333333 1.000000
vt 0.333333 0.941176
vt 0.333333 0.058824
vt 0.000000 0.058824
vt 0.000000 0.117647
vt 0.333333 0.117647
vt 0.666667 0.058824
vt 0.333333 0.058824
vt 0.333333 0.117647
vt 0.666667 0.117647
vt 0.666667 0.117647
vt 0.333333 0.117647
vt 0.333333 0.176471
vt 0.666667 0.176471
vt 0.666667 0.176471
vt 0.333333 0.176471
vt 0.333333 0.235294
vt 0.666667 0.235294
vt 0.666667 0.588235
vt 0.333333 0.588235
vt 0.333333 0.647059
vt 0.666667 0.647059
vt 0.666667 0.352941
vt 0.666667 0.294118
vt 0.333333 0.294118
vt 0.333333 0.352941
vt 1.000000 0.117647
vt 1.000000 0.058824
vt 0.666667 0.058824
vt 0.666667 0.117647
vt 0.333333 0.470588
vt 0.666667 0.470588
vt 0.666667 0.411765
vt 0.333333 0.411765
vt 0.666667 0.470588
vt 0.333333 0.470588
vt 0.333333 0.529412
vt 0.666667 0.529412
vt 0.333333 0.176471
vt 0.000000 0.176471
vt 0.000000 0.235294
vt 0.333333 0.235294
vt 0.333333 0.823529
vt 0.666667 0.823529
vt 0.666667 0.764706
vt 0.333333 0.764706
vt 0.333333 0.764706
vt 0.666667 0.764706
vt 0.666667 0.705882
vt 0.333333 0.705882
vt 0.666667 0.000000
vt 0.333333 0.000000
vt 0.333333 0.058824
vt 0.666667 0.058824
vt 0.333333 0.882353
vt 0.666667 0.882353
vt 0.666667 0.823529
vt 0.333333 0.823529
vt 0.333333 0.941176
vt 0.666667 0.941176
vt 0.666667 0.882353
vt 0.333333 0.882353
vt 0.666667 0.941176
vt 0.333333 0.941176
vt 0.333333 1.000000
vt 0.666667 1.000000
vn 0.0000 1.0000 0.0000
vn 0.0000 0.0000 -1.0000
vn 1.0000 0.0000 0.0000
usemtl None
s off
f 11/1/1 12/2/1 10/3/1 9/4/1
f 15/5/1 16/6/1 14/7/1 13/8/1
f 41/9/1 43/10/1 44/11/1 42/12/1
f 27/13/1 28/14/1 26/15/1 25/16/1
f 32/17/1 30/18/1 29/19/1 31/20/1
f 33/21/1 35/22/1 36/23/1 34/24/1
f 38/25/1 37/26/1 39/27/1 40/28/1
f 48/29/1 46/30/1 45/31/1 47/32/1
f 51/33/1 52/34/1 50/35/1 49/36/1
f 53/37/1 55/38/1 56/39/1 54/40/1
f 59/41/1 60/42/1 58/43/1 57/44/1
f 162/45/2 164/46/2 163/47/2 161/48/2
f 68/49/1 66/50/1 65/51/1 67/52/1
f 174/53/2 176/54/2 175/55/2 173/56/2
f 69/57/1 71/58/1 72/59/1 70/60/1
f 135/61/3 133/62/3 134/63/3 136/64/3
f 80/65/3 79/66/3 77/67/3 78/68/3
f 127/69/3 125/70/3 126/71/3 128/72/3
f 82/73/3 84/74/3 83/75/3 81/76/3
f 22/77/1 21/78/1 23/79/1 24/80/1
f 98/81/3 100/82/3 99/83/3 97/84/3
f 95/85/3 93/86/3 94/87/3 96/88/3
f 182/89/2 184/90/2 183/91/2 181/92/2
f 104/93/3 103/94/3 101/95/3 102/96/3
f 120/97/3 119/98/3 117/99/3 118/100/3
f 106/101/3 108/102/3 107/103/3 105/104/3
f 110/105/3 112/106/3 111/107/3 109/108/3
f 116/109/3 115/110/3 113/111/3 114/112/3
f 155/113/2 153/114/2 154/115/2 156/116/2
f 123/117/3 121/118/3 122/119/3 124/120/3
f 63/121/1 64/122/1 62/123/1 61/124/1
f 90/125/3 92/126/3 91/127/3 89/128/3
f 132/129/3 131/130/3 129/131/3 130/132/3
f 19/133/1 20/134/1 18/135/1 17/136/1
f 140/137/3 139/138/3 137/139/3 138/140/3
f 74/141/3 76/142/3 75/143/3 73/144/3
f 143/145/2 141/146/2 142/147/2 144/148/2
f 147/149/2 145/150/2 146/151/2 148/152/2
f 151/153/2 149/154/2 150/155/2 152/156/2
f 179/157/2 177/158/2 178/159/2 180/160/2
f 160/161/2 159/162/2 157/163/2 158/164/2
f 7/165/1 8/166/1 6/167/1 5/168/1
f 166/169/2 168/170/2 167/171/2 165/172/2
f 171/173/2 169/174/2 170/175/2 172/176/2
f 86/177/3 88/178/3 87/179/3 85/180/3
f 190/181/2 192/182/2 191/183/2 189/184/2
f 186/185/2 188/186/2 187/187/2 185/188/2
f 3/189/2 1/190/2 2/191/2 4/192/2
f 194/193/2 196/194/2 195/195/2 193/196/2
f 198/197/2 200/198/2 199/199/2 197/200/2
f 203/201/2 201/202/2 202/203/2 204/204/2
